<svg xmlns="http://www.w3.org/2000/svg" viewBox="-1263 -66 24.29 26.817">
  <defs>
    <style>
      .cls-1 {
        fill: #fff;
      }
    </style>
  </defs>
  <path id="icon_fenster_geschlossen" class="cls-1" d="M3.5,26.817a3.483,3.483,0,0,1-3.5-3.5V3.5A3.483,3.483,0,0,1,3.5,0h17.3a3.483,3.483,0,0,1,3.5,3.5V23.319a3.483,3.483,0,0,1-3.5,3.5ZM1.749,3.5V23.319A1.742,1.742,0,0,0,3.5,25.068h17.3a1.742,1.742,0,0,0,1.749-1.749V3.5a1.742,1.742,0,0,0-1.749-1.749H3.5A1.742,1.742,0,0,0,1.749,3.5Zm14.72,19.858a1.07,1.07,0,0,1-1-1V20.2a.888.888,0,0,1,.83-.83v-.83a1.826,1.826,0,0,1,3.651,0v.83c.332,0,.664.5.664.83V22.36a1.07,1.07,0,0,1-1,1ZM16.137,20.2v2.323a.357.357,0,0,0,.332.332h3.153a.357.357,0,0,0,.332-.332V20.368a.357.357,0,0,0-.332-.332H16.469A.58.58,0,0,0,16.137,20.2Zm.83-1.66v.664h2.158v-.83a.957.957,0,0,0-1-1A1.135,1.135,0,0,0,16.966,18.543ZM3.5,17.877a.882.882,0,0,1,0-.971l3.692-3.5c.194-.388.972-.194,1.166,0a.883.883,0,0,1,0,.972L4.664,18.072a.714.714,0,0,1-.583.194C3.887,18.266,3.692,18.072,3.5,17.877Zm0-4.275a1.238,1.238,0,0,1,0-1.165l8.356-8.356a.916.916,0,0,1,1.166.194.883.883,0,0,1,0,.972L4.664,13.6c-.194,0-.388.195-.583.195S3.692,13.6,3.5,13.6Zm0-5.441a.883.883,0,0,1,0-.972L7.384,3.5a.883.883,0,0,1,.972,0,.883.883,0,0,1,0,.972L4.664,8.162a.714.714,0,0,1-.583.194A.715.715,0,0,1,3.5,8.162Z" transform="translate(-1263 -66)"/>
</svg>
