<svg xmlns="http://www.w3.org/2000/svg" viewBox="-1682 92 35.273 25.573">
  <defs>
    <style>
      .cls-1 {
        fill: #fff;
      }
    </style>
  </defs>
  <g id="icon_kamera" transform="translate(-1682 92)">
    <path id="Vereinigungsmenge_4" data-name="Vereinigungsmenge 4" class="cls-1" d="M4.85,25.573A4.943,4.943,0,0,1,0,20.5V4.85A4.893,4.893,0,0,1,4.85,0H20.5a4.893,4.893,0,0,1,4.85,4.85V7.983l6.834-4.676a2.141,2.141,0,0,1,1.984-.221,2.25,2.25,0,0,1,1.1,1.764V20.723a2.247,2.247,0,0,1-1.1,1.764c-.221,0-.441.221-.882.221a1.686,1.686,0,0,1-1.1-.44L25.352,17.59V20.5a4.686,4.686,0,0,1-4.85,5.071ZM1.984,4.85V20.5A2.918,2.918,0,0,0,4.85,23.369H20.5A2.919,2.919,0,0,0,23.368,20.5V4.85A2.919,2.919,0,0,0,20.5,1.984H4.85A2.918,2.918,0,0,0,1.984,4.85Zm23.589,5.512v4.85l7.937,5.511V4.85Z" transform="translate(0)"/>
  </g>
</svg>
