<svg xmlns="http://www.w3.org/2000/svg" viewBox="-1586.666 92 33.666 23.784">
  <defs>
    <style>
      .cls-1 {
        fill: #fff;
      }
    </style>
  </defs>
  <g id="icon_tv_aus" transform="translate(-1586.665 92)">
    <path id="Vereinigungsmenge_24" data-name="Vereinigungsmenge 24" class="cls-1" d="M8.877,23.784a.67.67,0,1,1,0-1.34H24.788a.67.67,0,1,1,0,1.34ZM3.684,20.769A3.717,3.717,0,0,1,0,17.085V3.686A3.717,3.717,0,0,1,3.684,0h26.3a3.717,3.717,0,0,1,3.684,3.686v13.4a3.717,3.717,0,0,1-3.684,3.684ZM1.675,3.686v13.4a1.936,1.936,0,0,0,2.009,2.009h26.3a1.935,1.935,0,0,0,2.009-2.009V3.686a1.935,1.935,0,0,0-2.009-2.011H3.684A1.936,1.936,0,0,0,1.675,3.686Z" transform="translate(0 0)"/>
  </g>
</svg>
