<svg xmlns="http://www.w3.org/2000/svg" viewBox="-1405 89 31.147 31.147">
  <defs>
    <style>
      .cls-1 {
        fill: #fff;
      }
    </style>
  </defs>
  <path id="icon_richtig" class="cls-1" d="M0,15.574A15.574,15.574,0,1,1,15.574,31.147,15.619,15.619,0,0,1,0,15.574Zm1.752,0A13.822,13.822,0,1,0,15.574,1.752,13.875,13.875,0,0,0,1.752,15.574Zm11.486,4.867L8.955,16.158l1.168-1.168,3.7,3.7L22,10.512l1.168,1.168-8.76,8.76a.717.717,0,0,1-.584.194A.716.716,0,0,1,13.238,20.441Z" transform="translate(-1405 89)"/>
</svg>
