<svg xmlns="http://www.w3.org/2000/svg" viewBox="-1508 -65 32.012 24.458">
  <defs>
    <style>
      .cls-1 {
        fill: #fff;
      }
    </style>
  </defs>
  <g id="icon_wetter_wolkig" transform="translate(-1508 -65)">
    <path id="Pfad_13" data-name="Pfad 13" class="cls-1" d="M23.2,24.458H8.093A8.084,8.084,0,0,1,6.474,8.453,9.56,9.56,0,0,1,16.006,0a9.446,9.446,0,0,1,9.172,7.014A8.837,8.837,0,0,1,23.2,24.458ZM16.006,1.619A7.83,7.83,0,0,0,8.093,9.352v.719H7.373A6.4,6.4,0,0,0,8.093,22.84H23.379a7.215,7.215,0,0,0,7.194-7.194,7.137,7.137,0,0,0-5.935-7.014l-.54-.18-.18-.54A8.262,8.262,0,0,0,16.006,1.619Z"/>
  </g>
</svg>
