<svg xmlns="http://www.w3.org/2000/svg" viewBox="-1552 39 25.88 25.817">
  <defs>
    <style>
      .cls-1 {
        fill: #fff;
      }
    </style>
  </defs>
  <g id="icon_pflanze" transform="translate(-1552 39)">
    <path id="Vereinigungsmenge_3" data-name="Vereinigungsmenge 3" class="cls-1" d="M.386,25.817a.776.776,0,0,1-.323-.968,26.2,26.2,0,0,1,3.9-5.8,9.934,9.934,0,0,1-2.129-6.139C1.838,6.293,7.324,2.1,15.876,2.1,20.717,2.1,22.33.968,23.3.484A2.144,2.144,0,0,1,24.589,0C25.88.161,25.88,2.1,25.88,5c0,10.649-5.647,17.911-14.038,17.911a9.961,9.961,0,0,1-6.807-2.7,24.684,24.684,0,0,0-3.52,5.282c-.161.323-.484.323-.807.323ZM11.842,21.46c7.422,0,12.586-6.777,12.586-16.458a23.816,23.816,0,0,0-.161-3.388h-.161c-.968.645-3.066,1.936-8.229,1.936C10.067,3.55,3.29,5.97,3.29,12.909a8.474,8.474,0,0,0,1.665,5.035,33.447,33.447,0,0,1,6.564-5.52c.323-.161.807-.161.968.161a.608.608,0,0,1-.161.968,35.656,35.656,0,0,0-6.333,5.562A8.516,8.516,0,0,0,11.842,21.46Z" transform="translate(0 0)"/>
  </g>
</svg>
