<svg xmlns="http://www.w3.org/2000/svg" viewBox="-1508 32 24.899 32.575">
  <defs>
    <style>
      .cls-1 {
        fill: #fff;
      }
    </style>
  </defs>
  <g id="icon_schloss_offen" transform="translate(-1508 32)">
    <path id="Vereinigungsmenge_8" data-name="Vereinigungsmenge 8" class="cls-1" d="M4.119,32.575A4.155,4.155,0,0,1,0,28.456V17.411a4.155,4.155,0,0,1,4.119-4.119V8.424a8.425,8.425,0,0,1,16.849,0v.749H19.283V8.424a6.74,6.74,0,0,0-13.479,0v4.868H20.78A4.155,4.155,0,0,1,24.9,17.411V28.269a4.2,4.2,0,0,1-4.119,4.306ZM1.685,17.411V28.269A2.478,2.478,0,0,0,4.119,30.7H20.78a2.479,2.479,0,0,0,2.434-2.434V17.411a2.478,2.478,0,0,0-2.434-2.434H4.119A2.478,2.478,0,0,0,1.685,17.411Z"/>
  </g>
</svg>
