<svg xmlns="http://www.w3.org/2000/svg" viewBox="-1634 36 22.699 31.442">
  <defs>
    <style>
      .cls-1 {
        fill: #fff;
      }
    </style>
  </defs>
  <path id="icon_lampe_aus" class="cls-1" d="M11.386,0a11.373,11.373,0,0,0-4.4,21.867v5.262a4.356,4.356,0,0,0,8.712,0V21.867a11.389,11.389,0,0,0,6.124-14.88A11.275,11.275,0,0,0,11.386,0Zm0,29.717a2.589,2.589,0,0,1-2.458-1.768h4.917A2.589,2.589,0,0,1,11.386,29.717Zm2.631-3.494H8.755V24.455h5.262Zm.561-5.779a.927.927,0,0,0-.6.819V22.73H12.249V16.993l2.372-2.372L13.37,13.37,11.343,15.4,9.359,13.37,8.108,14.621l2.372,2.372v5.779H8.712V21.306a.828.828,0,0,0-.6-.819,9.665,9.665,0,1,1,12.378-5.909,9.817,9.817,0,0,1-5.909,5.866Z" transform="translate(-1634 36)"/>
</svg>
