<svg xmlns="http://www.w3.org/2000/svg" viewBox="-1306 -68 24.271 31.455">
  <defs>
    <style>
      .cls-1 {
        fill: #fff;
      }
    </style>
  </defs>
  <g id="icon_fenster_offen" transform="translate(-1306 -68)">
    <path id="Vereinigungsmenge_1" data-name="Vereinigungsmenge 1" class="cls-1" d="M13.592,31.261,2.33,27.378A3.571,3.571,0,0,1,0,24.076V3.495A3.481,3.481,0,0,1,3.495,0H20.776a3.481,3.481,0,0,1,3.495,3.495V23.3a3.481,3.481,0,0,1-3.495,3.495H18.058V27.96A3.4,3.4,0,0,1,16.7,30.678a4.1,4.1,0,0,1-1.941.777A2.461,2.461,0,0,1,13.592,31.261ZM1.747,3.495V24.076A1.477,1.477,0,0,0,2.913,25.63l11.262,3.883a1.465,1.465,0,0,0,1.553-.194A1.964,1.964,0,0,0,16.5,27.96V9.126a1.477,1.477,0,0,0-1.165-1.554L2.136,2.33A1.642,1.642,0,0,0,1.747,3.495Zm14.174,2.33a3.589,3.589,0,0,1,2.136,3.3V25.047h2.524A1.74,1.74,0,0,0,22.329,23.3V3.495a1.74,1.74,0,0,0-1.747-1.748H5.631ZM5.825,23.106a.881.881,0,0,1,0-.971l3.689-3.689a.881.881,0,0,1,.97,0,.882.882,0,0,1,0,.971L6.8,23.106c0,.194-.194.194-.389.194A.714.714,0,0,1,5.825,23.106Zm-2.33-3.3a.884.884,0,0,1,0-.971l8.349-8.349a.882.882,0,0,1,.971,0,.882.882,0,0,1,0,.971L4.466,19.8c0,.194-.194.194-.388.194A.714.714,0,0,1,3.495,19.8Zm2.33-7.184a.881.881,0,0,1,0-.971L9.515,7.961a.881.881,0,0,1,.97,0,.881.881,0,0,1,0,.971l-3.495,3.5c-.194.194-.388.388-.582.388A.714.714,0,0,1,5.825,12.621Z" transform="translate(0)"/>
  </g>
</svg>
