<svg xmlns="http://www.w3.org/2000/svg" viewBox="-1407 -74 31.863 42.425">
  <defs>
    <style>
      .cls-1 {
        fill: #fff;
      }
    </style>
  </defs>
  <g id="icon_wetter_gewitter" transform="translate(-1407 -56)">
    <path id="Pfad_64" data-name="Pfad 64" class="cls-1" d="M25.1,7.011A9.733,9.733,0,0,0,15.843,0,9.509,9.509,0,0,0,6.408,8.629,7.866,7.866,0,0,0,0,16.359a8.017,8.017,0,0,0,8.01,8.089H23.141a8.78,8.78,0,0,0,8.722-8.809A9.247,9.247,0,0,0,25.1,7.011ZM22.963,22.83H8.01A6.4,6.4,0,0,1,7.3,10.067H8.01V9.348A7.819,7.819,0,0,1,23.5,7.91l.178.539.534.18a7.159,7.159,0,0,1-1.246,14.2Z" transform="translate(0 -18)"/>
    <path id="Pfad_65" data-name="Pfad 65" class="cls-1" d="M19.533,17.157H14.37l.178-1.258a.665.665,0,0,0-.178-.539c-.178-.36-.356-.36-.534-.36H7.962a.65.65,0,0,0-.534.18l-4.45,4.854a1.358,1.358,0,0,0-.178.9c.178.36.356.539.712.539h5.34l-.89,8.269c0,.36.178.719.356.719h.356a.65.65,0,0,0,.534-.18L20.245,18.6a.8.8,0,0,0,.178-.9C20.067,17.337,19.889,17.157,19.533,17.157ZM9.564,27.4l.712-6.831a.665.665,0,0,0-.178-.539.65.65,0,0,0-.534-.18H5.114L8.14,16.618h4.628l-.178,1.258a.665.665,0,0,0,.178.539c.178.18.356.18.712.18h4.45Z" transform="translate(2.184 -6.035)"/>
  </g>
</svg>
