<svg xmlns="http://www.w3.org/2000/svg" viewBox="-1593 36 22.565 31.3">
  <defs>
    <style>
      .cls-1 {
        fill: #fff;
      }
    </style>
  </defs>
  <path id="icon_lampe_an" class="cls-1" d="M11.319,0A11.281,11.281,0,0,0,6.946,21.7v5.231a4.331,4.331,0,1,0,8.661.086V21.7A11.279,11.279,0,0,0,11.319,0Zm.858,16.85V22.6H10.462V16.85L8.1,14.492l1.243-1.243,1.972,2.015,1.972-2.015,1.243,1.243Zm-.858,12.691a2.574,2.574,0,0,1-2.444-1.758H13.72a2.536,2.536,0,0,1-2.4,1.758Zm2.615-3.473H8.7V24.311h5.231Z" transform="translate(-1593 36)"/>
</svg>
