<svg xmlns="http://www.w3.org/2000/svg" viewBox="-1357 35 32.326 32.326">
  <defs>
    <style>
      .cls-1 {
        fill: #fff;
      }
    </style>
  </defs>
  <g id="icon_wetter_sonne" transform="translate(-1357 35)">
    <path id="Pfad_51" data-name="Pfad 51" class="cls-1" d="M11.673,4.4a7.273,7.273,0,1,0,7.273,7.273A7.243,7.243,0,0,0,11.673,4.4Zm0,12.728a5.455,5.455,0,1,1,5.455-5.455A5.432,5.432,0,0,1,11.673,17.128Z" transform="translate(4.49 4.49)"/>
    <path id="Pfad_52" data-name="Pfad 52" class="cls-1" d="M6.292,11.177,2.453,15.015a.758.758,0,0,0,0,1.212.742.742,0,0,0,.606.2.742.742,0,0,0,.606-.2L7.5,12.389a.758.758,0,0,0,0-1.212A1.271,1.271,0,0,0,6.292,11.177Z" transform="translate(2.194 11.25)"/>
    <path id="Pfad_53" data-name="Pfad 53" class="cls-1" d="M11.859,7.806a.742.742,0,0,0,.606-.2L16.3,3.765a.758.758,0,0,0,0-1.212.758.758,0,0,0-1.212,0L11.253,6.392a.758.758,0,0,0,0,1.212C11.455,7.6,11.657,7.806,11.859,7.806Z" transform="translate(11.173 2.296)"/>
    <path id="Pfad_54" data-name="Pfad 54" class="cls-1" d="M12.465,11.253a.758.758,0,0,0-1.212,0,.758.758,0,0,0,0,1.212L15.092,16.3a.742.742,0,0,0,.606.2.742.742,0,0,0,.606-.2.758.758,0,0,0,0-1.212Z" transform="translate(11.173 11.173)"/>
    <path id="Pfad_55" data-name="Pfad 55" class="cls-1" d="M6.292,7.706c.2,0,.4.2.606.2a.742.742,0,0,0,.606-.2,1.244,1.244,0,0,0,.2-1.414L3.665,2.453a.758.758,0,0,0-1.212,0,.758.758,0,0,0,0,1.212Z" transform="translate(2.194 2.194)"/>
    <path id="Pfad_56" data-name="Pfad 56" class="cls-1" d="M18.763,7.6H13.308a.869.869,0,0,0-.808.808.869.869,0,0,0,.808.808h5.455a.869.869,0,0,0,.808-.808A.869.869,0,0,0,18.763,7.6Z" transform="translate(12.755 7.755)"/>
    <path id="Pfad_57" data-name="Pfad 57" class="cls-1" d="M7.071,8.408A.869.869,0,0,0,6.263,7.6H.808A.869.869,0,0,0,0,8.408a.869.869,0,0,0,.808.808H6.263A.74.74,0,0,0,7.071,8.408Z" transform="translate(0 7.755)"/>
    <path id="Pfad_58" data-name="Pfad 58" class="cls-1" d="M8.408,7.071a.869.869,0,0,0,.808-.808V.808A.869.869,0,0,0,8.408,0,.869.869,0,0,0,7.6.808V6.263A.74.74,0,0,0,8.408,7.071Z" transform="translate(7.755)"/>
    <path id="Pfad_59" data-name="Pfad 59" class="cls-1" d="M8.408,12.4a.869.869,0,0,0-.808.808v5.455a.924.924,0,0,0,.808,1.01.869.869,0,0,0,.808-.808V13.41A.924.924,0,0,0,8.408,12.4Z" transform="translate(7.755 12.653)"/>
  </g>
</svg>
