<svg xmlns="http://www.w3.org/2000/svg" viewBox="-1539 89 29.54 30.9">
  <defs>
    <style>
      .cls-1 {
        fill: #fff;
      }
    </style>
  </defs>
  <path id="icon_musik" class="cls-1" d="M28.568.583A3.918,3.918,0,0,0,26.43,0L10.883,2.138A2.5,2.5,0,0,0,8.745,4.664v17.1a5.587,5.587,0,0,0-3.5-1.36,5.247,5.247,0,1,0,5.247,5.247V10.106l17.3-2.332v11.66a5.587,5.587,0,0,0-3.5-1.36,5.247,5.247,0,1,0,5.247,5.247V2.526A3.7,3.7,0,0,0,28.568.583ZM5.247,29.151a3.5,3.5,0,1,1,3.5-3.5A3.484,3.484,0,0,1,5.247,29.151ZM10.3,8.357V4.664a.836.836,0,0,1,.777-.777L26.625,1.749a1.168,1.168,0,0,1,.777.194c.194.194.389.389.389.583v3.3ZM24.292,26.625a3.5,3.5,0,1,1,3.5-3.5A3.758,3.758,0,0,1,24.292,26.625Z" transform="translate(-1539 89)"/>
</svg>
