<svg xmlns="http://www.w3.org/2000/svg" viewBox="-1457 -72 31.864 39.189">
  <defs>
    <style>
      .cls-1 {
        fill: #fff;
      }
    </style>
  </defs>
  <g id="icon_wetter_regen" transform="translate(-1457 -72)">
    <path id="Vereinigungsmenge_22" data-name="Vereinigungsmenge 22" class="cls-1" d="M956.12,71.009a.677.677,0,0,1,0-1.078l11.036-11.146a.663.663,0,0,1,1.068,0,1.139,1.139,0,0,1,0,1.078L957.189,71.009a.883.883,0,0,1-1.068,0Zm9.968-.9a.678.678,0,0,1,0-1.079l3.026-3.056c.356-.179.712-.359,1.068,0a.679.679,0,0,1,0,1.079l-3.027,3.056a.885.885,0,0,1-1.067,0Zm-9.968-6.652a.677.677,0,0,1,0-1.078l3.56-3.6a.663.663,0,0,1,1.068,0,.677.677,0,0,1,0,1.078l-3.56,3.6a.883.883,0,0,1-1.068,0Zm.89-7.011A8.017,8.017,0,0,1,949,48.359a7.866,7.866,0,0,1,6.409-7.73A9.508,9.508,0,0,1,964.842,32a9.732,9.732,0,0,1,9.256,7.01,9.248,9.248,0,0,1,6.764,8.629,8.78,8.78,0,0,1-8.723,8.808ZM950.6,48.359a6.414,6.414,0,0,0,6.409,6.472h14.953a7.159,7.159,0,0,0,1.246-14.2l-.534-.18-.178-.539a7.819,7.819,0,0,0-15.486,1.438v.719H956.3A6.384,6.384,0,0,0,950.6,48.359Z" transform="translate(-949 -32)"/>
  </g>
</svg>
