<svg xmlns="http://www.w3.org/2000/svg" viewBox="-1465 32 24.912 32.575">
  <defs>
    <style>
      .cls-1 {
        fill: #fff;
      }
    </style>
  </defs>
  <path id="icon_schloss_geschlossen" class="cls-1" d="M4.119,32.575A4.155,4.155,0,0,1,0,28.456V17.411a4.155,4.155,0,0,1,4.119-4.118V8.425a8.425,8.425,0,1,1,16.849,0V13.3A4.158,4.158,0,0,1,24.9,17.411V28.269a3.98,3.98,0,0,1-4.119,4.306ZM1.685,17.411V28.269A2.478,2.478,0,0,0,4.119,30.7H20.78a2.478,2.478,0,0,0,2.434-2.434V17.411a2.478,2.478,0,0,0-2.434-2.434H4.119A2.478,2.478,0,0,0,1.685,17.411ZM19.1,13.292V8.425a6.712,6.712,0,0,0-6.739-6.74A6.555,6.555,0,0,0,5.8,8.425v4.868Z" transform="translate(-1465 32)"/>
</svg>
