<svg xmlns="http://www.w3.org/2000/svg" viewBox="-1680 37 27.557 29.29">
  <defs>
    <style>
      .cls-1 {
        fill: #fff;
      }
    </style>
  </defs>
  <g id="icon_haus" transform="translate(-1680 37)">
    <path id="Pfad_10" data-name="Pfad 10" class="cls-1" d="M25.914,29.24h-7.3A1.636,1.636,0,0,1,16.972,27.6V17.013H10.585V27.6A1.636,1.636,0,0,1,8.942,29.24h-7.3A1.636,1.636,0,0,1,0,27.6V10.991A1.657,1.657,0,0,1,.547,9.713L11.5.771h0a3.579,3.579,0,0,1,4.562,0l10.95,8.942a1.657,1.657,0,0,1,.547,1.277V27.6A1.636,1.636,0,0,1,25.914,29.24Zm-15.33-13.87h6.57A1.636,1.636,0,0,1,18.8,17.013V27.6h7.3V10.991L15.147,2.049a2.192,2.192,0,0,0-2.555,0L1.642,10.991V27.6h7.3V17.013A1.636,1.636,0,0,1,10.585,15.371Z" transform="translate(0 0.05)"/>
  </g>
</svg>
